<svg width="8" height="5" viewBox="0 0 8 5" fill="none" xmlns="http://www.w3.org/2000/svg">
<path d="M7.241 1.03351C7.241 1.09417 7.215 1.14617 7.163 1.18951L3.783 4.58251C3.73967 4.62584 3.68333 4.64751 3.614 4.64751C3.54467 4.64751 3.49267 4.62584 3.458 4.58251L0.078 1.18951C0.026 1.14617 0 1.09417 0 1.03351C0 0.97284 0.026 0.916507 0.078 0.864507L0.442 0.500507C0.485333 0.448507 0.537333 0.422507 0.598 0.422507C0.658667 0.422507 0.715 0.448507 0.767 0.500507L3.614 3.34751L6.474 0.500507C6.51733 0.448507 6.57367 0.422507 6.643 0.422507C6.71233 0.422507 6.76433 0.448507 6.799 0.500507L7.163 0.864507C7.215 0.90784 7.241 0.964174 7.241 1.03351Z" fill="black"/>
</svg>
