<svg width="19" height="19" viewBox="0 0 19 19" fill="none" xmlns="http://www.w3.org/2000/svg">
<path d="M17.6556 3.53C17.2337 3.02365 16.6084 2.73123 15.9493 2.73203H3.97012L3.939 2.47197C3.80719 1.35311 2.85915 0.509802 1.73255 0.509278L1.56807 0.509277C1.15887 0.509277 0.827148 0.840998 0.827148 1.2502C0.827148 1.65939 1.15887 1.99111 1.56807 1.99111H1.73255C2.10808 1.99111 2.42427 2.27221 2.46827 2.64525L3.48779 11.3141C3.70687 13.1802 5.28827 14.5868 7.16719 14.5867H14.9046C15.3138 14.5867 15.6455 14.255 15.6455 13.8458C15.6455 13.4366 15.3138 13.1049 14.9046 13.1049H7.16718C6.22751 13.1022 5.39102 12.509 5.0778 11.623H13.9095C15.7023 11.623 17.2377 10.3396 17.5556 8.57543L18.1372 5.3497C18.2548 4.70171 18.0783 4.03501 17.6556 3.53ZM16.6828 5.08667L16.1004 8.31263C15.9095 9.37238 14.9864 10.1428 13.9095 10.1412H4.84218L4.14498 4.21387H15.9493C16.1696 4.21255 16.3791 4.30939 16.5209 4.47808C16.6627 4.64678 16.722 4.86983 16.6828 5.08667Z" fill="#F8F8F8"/>
<circle cx="5.76232" cy="16.6461" r="1.64514" fill="#F8F8F8"/>
<circle cx="13.4401" cy="16.6461" r="1.64514" fill="#F8F8F8"/>
</svg>
