<svg width="4" height="7" viewBox="0 0 4 7" fill="none" xmlns="http://www.w3.org/2000/svg">
<path d="M8.55204e-05 6.34918C8.55254e-05 6.29174 0.0247003 6.24251 0.07393 6.20149L2.76926 3.49385L0.0739304 0.798526C0.0247008 0.749296 8.60146e-05 0.695964 8.60196e-05 0.638529C8.60246e-05 0.581094 0.0247008 0.527762 0.0739305 0.478533L0.418539 0.133925C0.459563 0.0928998 0.508793 0.0723874 0.566228 0.0723874C0.623662 0.0723874 0.676995 0.0928998 0.726224 0.133925L3.92616 3.34616C3.97538 3.38719 4 3.43642 4 3.49385C4 3.55129 3.97538 3.60462 3.92616 3.65385L0.726224 6.85378C0.685199 6.90301 0.631867 6.92763 0.566227 6.92763C0.500587 6.92763 0.451358 6.90301 0.418538 6.85378L0.0739299 6.50917C0.0247003 6.46815 8.55146e-05 6.41482 8.55204e-05 6.34918Z" fill="#EFF0F5"/>
</svg>
