<svg width="36" height="36" viewBox="0 0 36 36" fill="none" xmlns="http://www.w3.org/2000/svg">
<g clip-path="url(#clip0_18_51)">
<path d="M19.5005 30.3526C15.726 26.5781 15.726 20.4585 19.5005 16.6839L26.3348 9.84961L33.1692 16.6839C36.9436 20.4585 36.9436 26.5781 33.1692 30.3525C29.3946 34.1271 23.275 34.1271 19.5005 30.3526Z" fill="white"/>
<path d="M32.9495 18.5364C34.1545 21.5266 33.5463 25.0773 31.1226 27.5009C27.8853 30.7382 22.6365 30.7382 19.3992 27.5009C19.1214 27.2231 18.8764 26.926 18.6462 26.6211C19.0509 27.6253 19.6593 28.5663 20.4731 29.3802C23.7104 32.6175 28.9593 32.6175 32.1965 29.3802C35.1561 26.4206 35.4012 21.7844 32.9495 18.5364Z" fill="#00BEFF"/>
<path d="M3.51423 28.2684C-1.17133 23.5828 -1.17133 15.986 3.51423 11.3004L11.9982 2.81641L20.4822 11.3004C25.1677 15.986 25.1677 23.5828 20.4822 28.2684C15.7966 32.9539 8.1998 32.9539 3.51423 28.2684Z" fill="white"/>
<path d="M20.2094 13.5999C21.7054 17.3119 20.9502 21.7196 17.9416 24.7282C13.9228 28.747 7.40708 28.747 3.38838 24.7282C3.04358 24.3834 2.7394 24.0146 2.45374 23.6362C2.95607 24.8826 3.71125 26.0509 4.72156 27.0612C8.74034 31.08 15.2561 31.08 19.2748 27.0612C22.9488 23.3872 23.253 17.632 20.2094 13.5999Z" fill="#00BEFF"/>
</g>
<defs>
<clipPath id="clip0_18_51">
<rect width="36" height="36" fill="white"/>
</clipPath>
</defs>
</svg>
