<svg width="24" height="24" viewBox="0 0 24 24" fill="none" xmlns="http://www.w3.org/2000/svg">
<path d="M11.64 6.43695C10.582 6.43695 9.60068 6.70145 8.69601 7.23045C7.79135 7.75945 7.07835 8.47628 6.55701 9.38095C6.03568 10.2856 5.77501 11.2708 5.77501 12.3365C5.77501 13.4021 6.03951 14.3835 6.56851 15.2805C7.09751 16.1775 7.81435 16.8905 8.71902 17.4195C9.62368 17.9485 10.6088 18.213 11.6745 18.213C12.7402 18.213 13.7215 17.9485 14.6185 17.4195C15.5155 16.8905 16.2285 16.1736 16.7575 15.269C17.2865 14.3643 17.551 13.383 17.551 12.325C17.551 11.543 17.4015 10.7916 17.1025 10.071C16.8035 9.35028 16.3742 8.71395 15.8145 8.16195C15.2548 7.60995 14.6147 7.18445 13.894 6.88545C13.1733 6.58645 12.422 6.43695 11.64 6.43695ZM11.64 16.166C10.95 16.166 10.3098 15.9935 9.71951 15.6485C9.12918 15.3035 8.66151 14.8358 8.31651 14.2455C7.97151 13.6551 7.79901 13.015 7.79901 12.325C7.79901 11.635 7.97151 10.9948 8.31651 10.4045C8.66151 9.81412 9.12918 9.34645 9.71951 9.00145C10.3098 8.65645 10.95 8.48395 11.64 8.48395C12.33 8.48395 12.9702 8.65645 13.5605 9.00145C14.1508 9.34645 14.6185 9.81412 14.9635 10.4045C15.3085 10.9948 15.481 11.635 15.481 12.325C15.481 13.015 15.3085 13.6551 14.9635 14.2455C14.6185 14.8358 14.1508 15.3035 13.5605 15.6485C12.9702 15.9935 12.33 16.166 11.64 16.166ZM19.161 6.18395C19.161 6.56728 19.0268 6.89312 18.7585 7.16145C18.4902 7.42978 18.1643 7.56395 17.781 7.56395C17.3977 7.56395 17.0718 7.42978 16.8035 7.16145C16.5352 6.89312 16.401 6.56728 16.401 6.18395C16.401 5.80062 16.5352 5.47478 16.8035 5.20645C17.0718 4.93812 17.3977 4.80395 17.781 4.80395C18.1643 4.80395 18.4902 4.93812 18.7585 5.20645C19.0268 5.47478 19.161 5.80062 19.161 6.18395ZM23.071 7.58695C23.0863 6.69762 22.933 5.83128 22.611 4.98795C22.289 4.14462 21.8213 3.40095 21.208 2.75695C20.5487 2.14362 19.8012 1.67595 18.9655 1.35395C18.1298 1.03195 17.2673 0.878618 16.378 0.893951C15.4273 0.847952 13.8442 0.824951 11.6285 0.824951C9.41285 0.824951 7.83735 0.847952 6.90201 0.893951C6.01268 0.878618 5.14635 1.03195 4.30301 1.35395C3.45968 1.67595 2.71601 2.14362 2.07201 2.75695C1.45868 3.40095 0.994848 4.14079 0.680515 4.97645C0.366181 5.81212 0.216681 6.67462 0.232015 7.56395C0.170681 8.51462 0.140015 10.0978 0.140015 12.3135C0.140015 14.5291 0.170681 16.1123 0.232015 17.063C0.216681 17.9523 0.366181 18.8148 0.680515 19.6505C0.994848 20.4861 1.45868 21.2336 2.07201 21.893C2.73135 22.5063 3.47885 22.9701 4.31451 23.2845C5.15018 23.5988 6.01268 23.7483 6.90201 23.733C7.83735 23.7943 9.41668 23.825 11.64 23.825C13.8633 23.825 15.4427 23.7943 16.378 23.733C17.2673 23.7483 18.1298 23.5988 18.9655 23.2845C19.8012 22.9701 20.5487 22.5063 21.208 21.893C21.8213 21.2336 22.289 20.4861 22.611 19.6505C22.933 18.8148 23.0863 17.9523 23.071 17.063C23.117 16.1276 23.14 14.5521 23.14 12.3365C23.14 10.1208 23.117 8.53762 23.071 7.58695ZM20.61 19.11C20.4107 19.616 20.1232 20.0568 19.7475 20.4325C19.3718 20.8081 18.931 21.0956 18.425 21.295C17.8577 21.525 16.93 21.6706 15.642 21.732C14.906 21.7626 13.848 21.7703 12.468 21.755H10.812C9.43201 21.7703 8.37401 21.7626 7.63801 21.732C6.35001 21.6706 5.42235 21.525 4.85501 21.295C4.34901 21.0956 3.90818 20.8081 3.53251 20.4325C3.15685 20.0568 2.86935 19.616 2.67001 19.11C2.44001 18.5426 2.29435 17.615 2.23301 16.327C2.20235 15.591 2.19468 14.533 2.21001 13.153V11.589C2.19468 10.1936 2.21001 9.12028 2.25601 8.36895C2.31735 7.06562 2.45535 6.12262 2.67001 5.53995C2.86935 5.03395 3.15685 4.59312 3.53251 4.21745C3.90818 3.84178 4.34901 3.55429 4.85501 3.35495C5.42235 3.12495 6.35001 2.97928 7.63801 2.91795C8.37401 2.88729 9.43968 2.87962 10.835 2.89495H12.445C13.8403 2.87962 14.906 2.88729 15.642 2.91795C16.93 2.97928 17.8577 3.12495 18.425 3.35495C18.931 3.55429 19.3718 3.84178 19.7475 4.21745C20.1232 4.59312 20.4107 5.03395 20.61 5.53995C20.84 6.10728 20.9857 7.03495 21.047 8.32295C21.0777 9.05895 21.0853 10.117 21.07 11.497V13.153C21.0853 14.533 21.0777 15.591 21.047 16.327C20.9857 17.615 20.84 18.5426 20.61 19.11Z" fill="white"/>
</svg>
