<svg width="26" height="22" viewBox="0 0 26 22" fill="none" xmlns="http://www.w3.org/2000/svg">
<path d="M24.0033 4.142H1.71452C0.767675 4.142 0 3.37433 0 2.42748C0 1.48064 0.767675 0.712967 1.71452 0.712967H24.0033C24.9501 0.712967 25.7178 1.48064 25.7178 2.42748C25.7178 3.37433 24.9501 4.142 24.0033 4.142Z" fill="black"/>
<path d="M24.0033 21.287H1.71452C0.767675 21.287 0 20.5193 0 19.5725C0 18.6257 0.767675 17.858 1.71452 17.858H24.0033C24.9501 17.858 25.7178 18.6257 25.7178 19.5725C25.7178 20.5193 24.9501 21.287 24.0033 21.287Z" fill="black"/>
<path d="M24.0033 12.7148H1.71452C0.767675 12.7148 0 11.9471 0 11.0002C0 10.0534 0.767675 9.28572 1.71452 9.28572H24.0033C24.9501 9.28572 25.7178 10.0534 25.7178 11.0002C25.7178 11.9471 24.9501 12.7148 24.0033 12.7148Z" fill="black"/>
</svg>
